<?xml version="1.0" encoding="utf-8"?>
<!-- Generator: Adobe Illustrator 25.2.3, SVG Export Plug-In . SVG Version: 6.00 Build 0)  -->
<svg version="1.1" id="Layer_1" xmlns="http://www.w3.org/2000/svg" xmlns:xlink="http://www.w3.org/1999/xlink" x="0px" y="0px"
	 viewBox="0 0 606 606" style="enable-background:new 0 0 606 606;" xml:space="preserve">
<style type="text/css">
	.st0{fill:#FFFFFF;}
	.st1{stroke:#000000;stroke-width:18.5497;stroke-miterlimit:10;}
</style>
<g>
	<path class="st0" d="M293.4,602.4c-78.2,0-152,0-205.3-38.5C30.4,522.3,3.6,439.4,3.6,303c0-68.1,7.7-122.1,23.5-165.2
		c14.4-39.3,35.4-68.6,64.1-89.7C147.1,7,226.5,3.6,303,3.6c80.2,0,156.7,3.3,211.8,43.4c28.7,20.9,49.7,50.2,64.1,89.5
		c15.8,43.2,23.5,97.7,23.5,166.5c0,67.6-7.7,121.4-23.5,164.4c-14.4,39.2-35.4,68.6-64.1,89.8c-56.5,41.8-135.6,45.3-211.8,45.3
		L293.4,602.4z"/>
	<path class="st0" d="M303,4.2c80.1,0,156.5,3.3,211.4,43.3c28.6,20.8,49.5,50,63.9,89.3c15.8,43.2,23.5,97.6,23.5,166.3
		c0,67.5-7.7,121.2-23.5,164.2c-14.4,39.1-35.3,68.4-63.9,89.5c-24.9,18.4-55.9,30.7-94.9,37.5c-38.1,6.7-80.3,7.6-116.6,7.6l-4.8,0
		l-4.8,0c-36.2,0-77.3,0-113.2-5.1c-38.7-5.5-67.9-16-91.7-33.3C30.9,522,4.2,439.2,4.2,303c0-68,7.7-122,23.5-165
		C42.1,98.8,63,69.6,91.6,48.6c24.8-18.2,55.8-30.3,94.9-37.1C224,5.1,264.6,4.2,303,4.2 M303,3C137.3,3,3,22,3,303
		c0,297.1,129.1,300,290.4,300c3.2,0,6.4,0,9.6,0c165.7,0,300-21,300-300C603,19,468.7,3,303,3L303,3z"/>
</g>
<g>
	
		<image style="overflow:visible;opacity:0.6;" width="581" height="321" xlink:href="6CB4B82D.png"  transform="matrix(1 0 0 1 18.0877 146.0877)">
	</image>
	<g>
		<g>
			<g>
				<path d="M481,447.4c0-10,0-19.6,0-30.1c6,0.4,12.1,0.2,17.8,1.4c7.1,1.5,10.9,8.4,9.9,16c-0.9,7.2-6.5,12.2-14.4,12.6
					C490,447.6,485.7,447.4,481,447.4z M485,443.6c4,0,7.5,0.4,11-0.1c5.2-0.7,8.5-4.8,8.8-10c0.3-5.8-2.5-10.5-7.7-11.6
					c-3.9-0.8-8-0.6-12.2-0.8C485,429,485,436.2,485,443.6z"/>
				<path d="M562.5,447.5c-9.1,0-15.4-6.2-15.4-15c0-8.9,6.5-15,15.8-14.9c8.8,0.1,15.2,6.4,15.1,15
					C578,441.3,571.5,447.6,562.5,447.5z M562.4,444.2c6.7,0,11.5-4.8,11.6-11.6c0.1-6.7-4.8-11.7-11.5-11.7
					c-6.7,0-11.5,4.8-11.6,11.6C551,439.3,555.7,444.2,562.4,444.2z"/>
				<path d="M437.2,417.8c1.4,0,2.4,0,3.8,0c0,4.9,0,9.7,0,14.5c0,1.7,0,3.5,0.2,5.1c0.6,4.4,3.3,6.6,7.7,6.7c4.9,0.1,8-1.9,8.5-6.5
					c0.5-4.9,0.3-9.9,0.4-14.8c0-1.6,0-3.2,0-5c1.3-0.1,2.3-0.1,4.2-0.2c-0.4,7.7-0.3,15.2-1.5,22.5c-0.9,5.7-6.3,8-13.6,7.3
					c-5.4-0.5-9.4-4.4-9.7-10.3C436.9,430.9,437.2,424.5,437.2,417.8z"/>
				<path d="M363,444.1c0.6-1.1,1-1.9,1.1-2c4.1,0.7,7.8,1.7,11.6,2c2.7,0.2,5.3-0.8,5.8-3.9c0.5-3.2-2.1-4.2-4.5-4.9
					c-2.7-0.8-5.4-1.4-8-2.3c-3-1.1-5.1-3.2-5.1-6.7c-0.1-3.5,1.6-6.1,4.9-7.6c4.1-1.9,10.9-1.3,15.4,1.5c-0.3,0.9-0.7,1.9-0.9,2.5
					c-3.5-0.5-6.7-1.3-9.9-1.5c-3.2-0.1-5.5,1.9-5.6,4.2c-0.1,3,2.1,4,4.4,4.7c2.4,0.7,4.8,1.2,7.1,2c4.4,1.4,6.3,3.8,6.2,7.6
					c-0.1,3.7-2.3,6.5-6.4,7.5C373.4,448.3,368,447.8,363,444.1z"/>
				<path d="M412,447.3c-1.5,0-2.6,0-3.9,0c0-8.6,0-17,0-26c-3.4,0-6.6,0-9.9,0c0-1.4,0-2.3,0-3.4c7.9,0,15.6,0,23.6,0
					c0,1,0,1.9,0,3.3c-3.2,0-6.3,0-9.8,0C412,430.1,412,438.6,412,447.3z"/>
				<path d="M529.6,447.3c-1.3,0-2.3,0-3.5,0c0-9.8,0-19.4,0-29.4c1.1-0.1,2.2-0.1,3.5-0.2C529.6,427.6,529.6,437.3,529.6,447.3z"/>
			</g>
			<path d="M42.3,194.1c0-12.3,0-24.5,0-37c1.1-0.1,2.3-0.1,3.4-0.1c47.5,0,95-0.1,142.5,0c33.4,0,61.1,21.8,67.9,54.3
				c4.6,21.6-0.4,41.3-14.8,58.2c-14.1,16.6-32.3,24.5-54,24.4c-23.3-0.1-46.5-0.1-69.8,0c-16.1,0.1-28.7,9.9-32.4,24.9
				c-4.8,19.7,9.9,39.1,30.1,39.9c4.4,0.2,8.8,0.1,13.2,0.1c38.3,0,76.7,0,115,0c1.3,0,2.6,0,4.2,0c0,12.4,0,24.6,0,37.1
				c-1.1,0-2.3,0.1-3.4,0.1c-48.2,0-96.5,0-144.7,0c-31.4,0-57.1-17.6-67.4-47.3c-7.2-20.6-5-40.8,6.9-59.4
				c11.2-17.5,27-28.3,47.6-31.8c4.3-0.7,8.8-0.9,13.2-1c23.6-0.1,47.2,0,70.7-0.1c15.3-0.1,27.5-9.8,30.8-24.5
				c4.2-18.7-9.8-37.4-29.1-37.5c-35-0.3-70-0.1-105-0.1c-7.2,0-14.4,0-21.6,0C44.6,194.3,43.5,194.2,42.3,194.1z"/>
			<path d="M280.3,156.7c17.6,0,35,0,52.7,0c0,79.6,0,159.2,0,239.1c-17.5,0-35,0-52.7,0C280.3,316.1,280.3,236.5,280.3,156.7z"/>
			<path d="M335.5,415.9c0,11.1,0,22.2,0,33.4c-100.9,0-201.7,0-302.8,0c0-11.1,0-22.2,0-33.4C133.7,415.9,234.5,415.9,335.5,415.9z
				"/>
			<g>
				<path class="st1" d="M570.3,278.6c0,76.7-45.7,117.4-101.4,117.4c-57.7,0-98.2-45.6-98.2-113.1c0-70.8,43.1-117.1,101.4-117.1
					C531.7,165.8,570.3,212.4,570.3,278.6z M400.8,282.2c0,47.6,25.3,90.3,69.7,90.3c44.7,0,70-42,70-92.6
					c0-44.3-22.7-90.6-69.7-90.6C424.1,189.3,400.8,233.3,400.8,282.2z"/>
			</g>
		</g>
	</g>
</g>
</svg>
